# xmcd
#
# Track frame offsets: 
#        150
#        16971
#        44525
#        75661
#        112857
#        133773
#        160825
#        238896
#        268771
#
# Disc length: 4094 seconds
#
# Revision: 1
# Processed by: cddbd v1.5.2PL0 Copyright (c) Steve Scherf et al.
# Submitted via: ExactAudioCopy v0.95a5
#
DISCID=720ffc09
DTITLE=Ryszard Skibinski - Ostatni koncert
DYEAR=2005
DGENRE=Blues 
TTITLE0=Blues lakowy (Kapela Lakowa)
TTITLE1=Maszynka lakowa - (Kapela Lakowa i Krzak)
TTITLE2=Come on
TTITLE3=Taki sobie blues
TTITLE4=Double R Song
TTITLE5=Kim jestes - listonoszem
TTITLE6=Go-Go-owiec
TTITLE7=Ballada dla M
TTITLE8=Taki sobie rock'n'roll
EXTD=
EXTT0=
EXTT1=
EXTT2=
EXTT3=
EXTT4=
EXTT5=
EXTT6=
EXTT7=
EXTT8=
PLAYORDER=
